<?xml version="1.0" standalone="no"?>
<!DOCTYPE svg PUBLIC "-//W3C//DTD SVG 20010904//EN"
 "http://www.w3.org/TR/2001/REC-SVG-20010904/DTD/svg10.dtd">
<svg version="1.0" xmlns="http://www.w3.org/2000/svg"
 width="500.000000pt" height="500.000000pt" viewBox="0 0 500.000000 500.000000"
 preserveAspectRatio="xMidYMid meet">
<metadata>
Created by potrace 1.14, written by Peter Selinger 2001-2017
</metadata>
<g transform="translate(0.000000,500.000000) scale(0.100000,-0.100000)"
fill="#000000" stroke="none">
<path d="M2023 3730 c-312 -57 -553 -340 -553 -652 0 -360 266 -642 634 -672
l69 -6 -20 23 c-11 12 -28 37 -39 55 -11 20 -26 32 -39 32 -44 0 -166 41 -227
77 -161 94 -263 262 -275 453 -17 280 176 528 457 586 147 30 330 -12 450
-106 32 -25 41 -27 98 -22 l64 5 -39 40 c-59 61 -172 131 -262 160 -92 31
-231 42 -318 27z"/>
<path d="M2032 3529 c-164 -21 -287 -136 -344 -322 -36 -121 -9 -327 43 -327
26 0 32 20 19 56 -72 187 39 460 211 520 40 14 83 19 169 19 159 1 224 4 218
10 -11 11 -145 43 -198 48 -30 2 -83 1 -118 -4z"/>
<path d="M2725 3439 c-247 -10 -481 -27 -572 -41 -72 -11 -73 -11 -79 -46 -13
-68 19 -552 46 -691 16 -86 30 -130 43 -138 7 -4 19 -21 27 -38 23 -44 384
-255 489 -285 71 -20 935 211 990 265 11 11 9 15 -15 28 -59 30 -305 112 -469
157 -44 12 -84 26 -88 30 -5 4 -8 75 -8 156 2 261 -22 576 -46 600 -16 15 -19
15 -318 3z m289 -56 c23 -75 48 -624 29 -650 -9 -13 -83 -31 -233 -59 -47 -8
-132 -24 -190 -35 -144 -27 -306 -49 -362 -49 -44 0 -47 2 -57 33 -38 117 -66
424 -62 665 1 46 4 54 25 62 49 18 448 45 718 48 113 2 127 0 132 -15z m173
-783 c138 -41 158 -49 147 -60 -16 -16 -683 -160 -740 -160 -26 0 -199 70
-238 96 -25 17 -36 14 249 69 132 25 283 54 335 64 129 25 134 25 247 -9z m18
-158 c43 -16 80 -33 82 -39 2 -5 -46 -22 -106 -37 l-109 -28 -86 38 c-48 20
-83 41 -79 45 9 9 163 46 199 48 11 0 56 -12 99 -27z"/>
<path d="M1440 2590 c-11 -11 -20 -28 -20 -37 0 -20 142 -160 203 -201 32 -21
41 -23 62 -14 27 12 42 52 28 75 -17 31 -214 197 -233 197 -11 0 -29 -9 -40
-20z"/>
<path d="M1362 2335 c-47 -40 -456 -484 -470 -512 -31 -58 14 -130 86 -140 33
-4 44 -1 70 23 80 74 456 493 468 522 18 41 9 76 -28 107 -39 33 -87 33 -126
0z"/>
<path d="M1814 2015 c-59 -30 -89 -71 -105 -144 -23 -108 13 -222 84 -269 36
-24 50 -27 127 -27 77 0 91 3 127 27 107 71 124 287 30 381 -62 61 -176 75
-263 32z m177 -68 c48 -30 67 -171 32 -244 -20 -43 -71 -68 -121 -59 -67 10
-102 65 -102 156 0 89 31 149 85 163 27 7 83 -2 106 -16z"/>
<path d="M2732 2021 c-31 -15 -47 -30 -58 -57 -31 -75 3 -138 104 -192 72 -38
84 -52 80 -89 -5 -48 -62 -54 -175 -18 -21 7 -23 4 -23 -33 0 -39 2 -42 38
-51 134 -38 252 15 252 113 0 61 -28 97 -107 139 -81 42 -96 57 -91 89 5 39
48 52 114 35 l55 -14 13 31 c13 30 12 31 -18 45 -54 23 -136 24 -184 2z"/>
<path d="M3357 2030 c-106 -33 -165 -160 -137 -293 23 -112 92 -168 205 -166
95 2 109 8 113 53 3 36 2 38 -20 32 -100 -28 -169 -11 -193 48 -8 20 -15 65
-15 101 0 140 76 192 202 140 13 -5 20 1 31 27 13 32 13 34 -11 47 -31 17
-137 24 -175 11z"/>
<path d="M3765 2028 c-82 -29 -125 -93 -133 -198 -11 -160 69 -260 209 -260
72 0 116 15 157 54 48 44 64 89 65 176 1 114 -36 183 -118 221 -44 21 -132 24
-180 7z m159 -86 c63 -56 62 -219 -1 -275 -30 -26 -83 -32 -126 -13 -48 20
-67 63 -67 152 0 96 22 134 90 158 24 8 83 -4 104 -22z"/>
<path d="M1510 1800 c0 -154 -4 -238 -12 -255 -12 -27 -45 -41 -78 -32 -17 4
-20 0 -20 -34 l0 -39 50 0 c63 0 104 20 127 63 16 28 18 66 21 280 l3 247 -45
0 -46 0 0 -230z"/>
<path d="M2250 1800 l0 -230 73 0 c39 0 99 4 132 10 49 8 66 16 93 45 53 57
42 147 -21 177 l-32 16 26 12 c48 22 65 102 33 149 -28 39 -73 51 -194 51
l-110 0 0 -230z m208 144 c26 -18 28 -50 5 -76 -12 -13 -30 -18 -70 -18 l-53
0 0 55 0 55 48 0 c27 0 57 -7 70 -16z m-5 -175 c28 -15 37 -28 37 -56 0 -41
-34 -63 -95 -63 l-55 0 0 65 0 65 46 0 c25 0 55 -5 67 -11z"/>
<path d="M3054 1659 c-25 -9 -34 -36 -23 -67 12 -33 75 -31 90 2 20 44 -20 83
-67 65z"/>
</g>
</svg>
